<?xml version="1.0" standalone="no"?>
<!DOCTYPE svg PUBLIC "-//W3C//DTD SVG 20010904//EN"
 "http://www.w3.org/TR/2001/REC-SVG-20010904/DTD/svg10.dtd">
<svg version="1.0" xmlns="http://www.w3.org/2000/svg"
 width="256.000000pt" height="256.000000pt" viewBox="0 0 256.000000 256.000000"
 preserveAspectRatio="xMidYMid meet">
<metadata>
Created by potrace 1.15, written by Peter Selinger 2001-2017
</metadata>
<g transform="translate(0.000000,256.000000) scale(0.100000,-0.100000)"
fill="#000000" stroke="none">
<path d="M1120 2529 c-19 -4 -48 -9 -65 -12 -148 -24 -347 -104 -479 -192
-351 -235 -554 -625 -551 -1055 2 -208 38 -362 128 -549 80 -168 189 -303 337
-420 131 -103 236 -161 375 -209 57 -19 85 -26 221 -56 78 -17 310 -17 388 0
136 30 164 37 221 56 139 48 245 106 375 209 155 123 252 244 343 429 90 185
125 349 121 570 -3 212 -33 345 -117 520 -91 188 -192 317 -347 439 -170 135
-378 230 -565 257 -16 3 -37 8 -45 11 -23 9 -301 11 -340 2z m387 -143 c546
-116 930 -608 900 -1156 -6 -114 -24 -211 -56 -303 -26 -75 -81 -187 -92 -187
-5 0 -15 13 -24 29 -8 17 -19 32 -24 35 -5 3 -33 -31 -62 -77 -64 -97 -189
-227 -277 -286 -96 -65 -237 -128 -347 -157 -124 -33 -325 -38 -442 -11 -278
63 -503 213 -656 437 l-53 78 -24 -38 c-30 -49 -38 -43 -91 66 -106 222 -131
507 -67 749 116 440 493 774 943 834 92 13 282 6 372 -13z"/>
<path d="M1122 2286 c-219 -42 -388 -127 -543 -274 -66 -62 -166 -197 -187
-253 -9 -22 0 -63 10 -49 2 3 26 39 52 80 69 106 135 180 219 243 125 96 262
160 411 194 95 21 297 21 392 0 251 -57 469 -201 620 -410 17 -25 22 -27 32
-14 10 12 4 26 -29 76 -85 127 -247 260 -404 331 -166 75 -407 107 -573 76z"/>
<path d="M1080 1805 l0 -75 200 0 200 0 0 75 0 75 -200 0 -200 0 0 -75z"/>
<path d="M1080 1585 l0 -75 200 0 200 0 0 75 0 75 -200 0 -200 0 0 -75z"/>
<path d="M1080 1340 l0 -110 -145 0 c-80 0 -145 -3 -145 -6 0 -10 485 -504
495 -504 12 0 495 481 495 493 0 4 -51 7 -114 7 -62 0 -128 3 -145 6 l-31 7 0
102 0 102 -77 7 c-42 3 -134 6 -205 6 l-128 0 0 -110z"/>
</g>
</svg>
